<svg xmlns="http://www.w3.org/2000/svg" version="1.1" xmlns:xlink="http://www.w3.org/1999/xlink" xmlns:svgjs="http://svgjs.dev/svgjs" width="1440" height="250" preserveAspectRatio="none" viewBox="0 0 1440 250"><g mask="url(&quot;#SvgjsMask1009&quot;)" fill="none"><rect width="1440" height="250" x="0" y="0" fill="rgba(77, 142, 209, 1)"></rect><path d="M35 250L285 0L438 0L188 250z" fill="url(&quot;#SvgjsLinearGradient1010&quot;)"></path><path d="M253.60000000000002 250L503.6 0L817.1 0L567.1 250z" fill="url(&quot;#SvgjsLinearGradient1010&quot;)"></path><path d="M517.2 250L767.2 0L1014.7 0L764.7 250z" fill="url(&quot;#SvgjsLinearGradient1010&quot;)"></path><path d="M755.8000000000001 250L1005.8000000000001 0L1058.3000000000002 0L808.3000000000001 250z" fill="url(&quot;#SvgjsLinearGradient1010&quot;)"></path><path d="M1397 250L1147 0L983.5 0L1233.5 250z" fill="url(&quot;#SvgjsLinearGradient1011&quot;)"></path><path d="M1181.4 250L931.4000000000001 0L773.9000000000001 0L1023.9000000000001 250z" fill="url(&quot;#SvgjsLinearGradient1011&quot;)"></path><path d="M937.8 250L687.8 0L387.79999999999995 0L637.8 250z" fill="url(&quot;#SvgjsLinearGradient1011&quot;)"></path><path d="M697.1999999999999 250L447.19999999999993 0L280.69999999999993 0L530.6999999999999 250z" fill="url(&quot;#SvgjsLinearGradient1011&quot;)"></path><path d="M1289.4610367835824 250L1440 99.4610367835823L1440 250z" fill="url(&quot;#SvgjsLinearGradient1010&quot;)"></path><path d="M0 250L150.5389632164177 250L 0 99.4610367835823z" fill="url(&quot;#SvgjsLinearGradient1011&quot;)"></path></g><defs><mask id="SvgjsMask1009"><rect width="1440" height="250" fill="#ffffff"></rect></mask><linearGradient x1="0%" y1="100%" x2="100%" y2="0%" id="SvgjsLinearGradient1010"><stop stop-color="rgba(24, 59, 110, 0.2)" offset="0"></stop><stop stop-opacity="0" stop-color="rgba(24, 59, 110, 0.2)" offset="0.66"></stop></linearGradient><linearGradient x1="100%" y1="100%" x2="0%" y2="0%" id="SvgjsLinearGradient1011"><stop stop-color="rgba(24, 59, 110, 0.2)" offset="0"></stop><stop stop-opacity="0" stop-color="rgba(24, 59, 110, 0.2)" offset="0.66"></stop></linearGradient></defs></svg>